<svg xmlns="http://www.w3.org/2000/svg" viewBox="0 0 1080 1080">
	<path fill="#d00000" d="M1080 1080H0V0h1080v1080z"/>
	<path fill="#fff" d="M294.8 833.5c0 .8.5 2 1 2.5l18.6 18.5c.5.5 1.7 1 2.5 1H380c.9 0 2-.5 2.6-1l18.5-18.5c.5-.6 1-1.7 1-2.5V632.7c0-.8.5-2 1-2.5l80.4-76.7c.6-.6 1.5-.5 2 .2l203 300.6c.5.7 1.5 1.2 2.3 1.2h89.6c.8 0 1.8-.6 2.2-1.3l16.3-31.5c.3-.7.3-1.9-.2-2.5L561.3 475.9c-.5-.7-.4-1.7.2-2.3l218.4-217.4a4 4 0 001-2.5v-4c0-.9-.2-2.1-.5-2.9l-12.6-29a2.5 2.5 0 00-2-1.3H677c-.8 0-2 .5-2.5 1L403.3 490c-.6.6-1 .4-1-.4v-250c0-.7-.5-1.9-1.1-2.5l-18.1-19.4c-.6-.6-1.7-1.1-2.5-1.1h-63.7c-.8 0-2 .5-2.5 1l-18.6 20.1c-.5.6-1 1.8-1 2.6v593.3z"/>
</svg>