<svg xmlns="http://www.w3.org/2000/svg" fill-opacity="1" stroke="#777" viewBox="0 0 128 128">
  <path fill="#e8e6e3" d="M63 1a63 63 0 102 0zm0 14a49 49 0 102 0zm0 14a35 35 0 102 0zm0 14a21 21 0 102 0zm0 14a7 7 0 102 0zm64 7H1m108-45l-90 90m90 0L19 19M64 1v126"/>
  <path fill="#F60" d="M50 8L30 18l68 92 10-10-44-36z"/>
  <path fill="#FC0" d="M17 50v28l47-14z"/>
  <path fill="#7F7" d="M64 64l6 35H58z"/>
  <path fill="#CF3" d="M64 64l13-40 9 5z"/>
  <path fill="#04F" d="M64 64l14-6 1 4zL38 77l3 4z"/>
</svg>